<svg xmlns="http://www.w3.org/2000/svg" fill="none" viewBox="0 0 136 30">
  <defs/>
  <g clip-path="url(#clip0)">
    <path fill="#121920" fill-rule="evenodd" d="M15.6 0a15 15 0 0114.7 19 2.5 2.5 0 11-4.8-1.4 10 10 0 10-9.7 7.3 2.5 2.5 0 010 5A15 15 0 017 3.1l1.5 2L7 3a15 15 0 018.6-3z" clip-rule="evenodd"/>
    <path fill="#F95A59" d="M27.2 24.7a3.8 3.8 0 11-7.6 0 3.8 3.8 0 017.6 0z"/>
    <path fill="#F95A59" fill-rule="evenodd" d="M61.5 24h-5l-.7-1-2.6.9c-.8.2-1.6.3-2.5.3-3 0-5.4-.8-7.1-2.2-1.8-1.6-2.7-3.9-2.7-6.9 0-3 .9-5.3 2.4-6.9 1.6-1.6 4-2.4 7.4-2.4 3.2 0 5.6.9 7.3 2.6a7.6 7.6 0 012.2 5.6c0 1.7-.1 3-.3 3.7a8.2 8.2 0 01-1.5 3.3l3 3zm-5.7-9c0-1.7-.4-3-1-4-1-1.3-2.3-2-4.2-2-1.7 0-3 .6-4 1.6-.8 1-1.2 2.4-1.2 4.3 0 2.1.5 3.7 1.5 4.7 1 .8 2.3 1.3 4 1.3 1.7 0 2.9-.5 3.7-1.5.8-1 1.2-2.5 1.2-4.4zM80.2 18.4c0 1.6-.5 2.9-1.5 4-1 1-2.4 1.5-4 1.5H62.3v-3.2h10.3c.7 0 1.3-.2 1.7-.5.6-.4.9-.8.9-1.5 0-1.5-1.1-2.3-3.2-2.3h-5.2a6 6 0 01-4-1.4 4.4 4.4 0 01-1.7-3.5c0-1.6.6-3 1.7-3.9 1-1 2.6-1.4 4.4-1.4h12v3H68.5c-.4 0-1 .2-1.4.6-.5.4-.7.8-.7 1.4 0 .6.2 1.1.7 1.5.5.4 1 .6 1.7.6h5.7c1.8 0 3.2.5 4.2 1.4 1 1 1.5 2.2 1.5 3.7zM100.7 15c0 3.4-1 5.9-2.9 7.4a11 11 0 01-6.7 1.8c-3.3 0-5.8-.7-7.3-2-1.8-1.6-2.6-4-2.6-7.4 0-2.7.7-5 2.3-6.4 1.7-1.7 4.2-2.5 7.5-2.5 3.7 0 6.2.8 7.8 2.4 1.3 1.4 1.9 3.6 1.9 6.7zm-4.5-.1c0-1.8-.5-3.2-1.3-4.2C94 9.6 92.6 9 90.8 9c-1.8 0-3.1.6-4 1.8-.8 1-1.2 2.4-1.2 4 0 1.9.3 3.3 1 4.2.8 1.3 2.3 2 4.6 2 2 0 3.3-.7 4-2 .7-.8 1-2.2 1-4.1zM118.5 16.5h-12.2v7.3h-4.4V13c0-.7.1-1.4.4-2.2a5.7 5.7 0 012.7-3.4 17 17 0 017.8-1.2h22.9v3H129v14.6h-4.2V9.1h-12.4c-1.6 0-2.8 0-3.4.2-1.1.3-2 1-2.4 1.9-.4.7-.5 1.4-.5 2.3h12.3v3z" clip-rule="evenodd"/>
  </g>
  <defs>
    <clipPath id="clip0">
      <path fill="#fff" d="M0 0h135v30H0z" transform="translate(1)"/>
    </clipPath>
  </defs>
</svg>
